<svg width="20" height="20" viewBox="0 0 20 20" fill="none" xmlns="http://www.w3.org/2000/svg">
<path d="M16.8898 3.11019L17.2434 2.75664L16.8898 3.11019ZM5.41671 17.5296V18.0296C5.54932 18.0296 5.6765 17.9769 5.77027 17.8831L5.41671 17.5296ZM2.50005 17.5296H2.00005C2.00005 17.8057 2.2239 18.0296 2.50005 18.0296V17.5296ZM2.50005 14.5537L2.14649 14.2001C2.05272 14.2939 2.00005 14.4211 2.00005 14.5537H2.50005ZM14.2971 3.46375C14.9154 2.84542 15.9179 2.84542 16.5363 3.46375L17.2434 2.75664C16.2345 1.74779 14.5988 1.74779 13.59 2.75664L14.2971 3.46375ZM16.5363 3.46375C17.1546 4.08208 17.1546 5.08459 16.5363 5.70292L17.2434 6.41003C18.2522 5.40117 18.2522 3.7655 17.2434 2.75664L16.5363 3.46375ZM16.5363 5.70292L5.06316 17.176L5.77027 17.8831L17.2434 6.41003L16.5363 5.70292ZM5.41671 17.0296H2.50005V18.0296H5.41671V17.0296ZM13.59 2.75664L2.14649 14.2001L2.8536 14.9072L14.2971 3.46375L13.59 2.75664ZM2.00005 14.5537V17.5296H3.00005V14.5537H2.00005ZM12.34 4.71375L15.2863 7.66003L15.9934 6.95292L13.0471 4.00664L12.34 4.71375Z" fill="#7A7A7A"/>
</svg>
